<?xml version="1.0" encoding="utf-8"?>
<!-- Generator: Adobe Illustrator 22.1.0, SVG Export Plug-In . SVG Version: 6.00 Build 0)  -->
<svg version="1.1" id="Слой_1" xmlns="http://www.w3.org/2000/svg" xmlns:xlink="http://www.w3.org/1999/xlink" x="0px" y="0px"
	 viewBox="0 0 21 21" style="enable-background:new 0 0 21 21;" xml:space="preserve">
<style type="text/css">
	.st0{fill:#CCCCCC;}
</style>
<title>arrow</title>
<g id="Слой_2_1_">
	<g id="quote">
		<g id="ARROW_DOWN_copy_2">
			<path class="st0" d="M8.1,10.5l8-8l0,0c0.6-0.6,0.5-1.6-0.1-2.1C15.7,0.1,15.4,0,15,0c-0.4,0-0.7,0.2-1,0.4l0,0l-9,9l0,0
				c-0.3,0.3-0.5,0.7-0.5,1.1l0,0c0,0.4,0.2,0.8,0.5,1.1l0,0l9,9l0,0c0.6,0.6,1.5,0.6,2.1,0.1c0.6-0.6,0.6-1.5,0.1-2.1
				c-0.1-0.1-0.1-0.1-0.2-0.2L8.1,10.5z"/>
		</g>
	</g>
</g>
</svg>
