<svg xmlns="http://www.w3.org/2000/svg" viewBox="0 0 30 30"><defs><style>.cls-1{fill:#fff;fill-rule:evenodd;}</style></defs><g id="Слой_2" data-name="Слой 2"><g id="work"><g id="pic"><g id="hover"><g id="PICTURE"><path class="cls-1" d="M24.5,18.5l-4.5-7L13,20l-1.5-1.5-6,6h19ZM10,13a3,3,0,1,0-3-3A3,3,0,0,0,10,13ZM30,6a1.51,1.51,0,0,0-1-1.41V2.91A1.5,1.5,0,1,0,27.09,1H25.41a1.49,1.49,0,0,0-2.82,0H20.91a1.49,1.49,0,0,0-2.82,0H16.41a1.49,1.49,0,0,0-2.82,0H11.91A1.49,1.49,0,0,0,9.09,1H7.41A1.49,1.49,0,0,0,4.59,1H2.91A1.5,1.5,0,1,0,1,2.91V4.59A1.49,1.49,0,0,0,1,7.41V9.09a1.49,1.49,0,0,0,0,2.82v1.68a1.49,1.49,0,0,0,0,2.82v1.68a1.49,1.49,0,0,0,0,2.82v1.68a1.49,1.49,0,0,0,0,2.82v1.68A1.5,1.5,0,1,0,2.91,29H4.59a1.49,1.49,0,0,0,2.82,0H9.09a1.49,1.49,0,0,0,2.82,0h1.68a1.49,1.49,0,0,0,2.82,0h1.68a1.49,1.49,0,0,0,2.82,0h1.68a1.49,1.49,0,0,0,2.82,0h1.68A1.5,1.5,0,1,0,29,27.09V25.41a1.49,1.49,0,0,0,0-2.82V20.91a1.49,1.49,0,0,0,0-2.82V16.41a1.49,1.49,0,0,0,0-2.82V11.91a1.49,1.49,0,0,0,0-2.82V7.41A1.51,1.51,0,0,0,30,6ZM26,26H4V4H26Z"/></g></g></g></g></g></svg>