<svg xmlns="http://www.w3.org/2000/svg" xmlns:xlink="http://www.w3.org/1999/xlink" viewBox="0 0 64 64"><defs><style>.a{isolation:isolate;}.b{fill:url(#a);}.c{fill:#f66;}.d{mix-blend-mode:screen;fill:url(#b);}.e{fill:url(#c);}.f{fill:#15272a;}</style><radialGradient id="a" cx="32" cy="32" r="31.33" gradientUnits="userSpaceOnUse"><stop offset="0" stop-color="#d1edfb"/><stop offset="1" stop-color="#f38181"/></radialGradient><linearGradient id="b" x1="32" y1="1.6" x2="32" y2="50.97" gradientUnits="userSpaceOnUse"><stop offset="0" stop-color="#fff"/><stop offset="1"/></linearGradient><linearGradient id="c" x1="-330.86" y1="-298.44" x2="-330.86" y2="-326.8" gradientTransform="translate(343.54 -298.78) rotate(-90)" gradientUnits="userSpaceOnUse"><stop offset="0" stop-color="#706f71"/><stop offset="1" stop-color="#050607"/></linearGradient></defs><title>scroll</title><g class="a"><rect class="b" x="0.67" y="0.67" width="62.67" height="62.67" rx="12.67" ry="12.67"/><path class="c" d="M50.67,1.33a12,12,0,0,1,12,12V50.67a12,12,0,0,1-12,12H13.33a12,12,0,0,1-12-12V13.33a12,12,0,0,1,12-12H50.67m0-1.33H13.33A13.37,13.37,0,0,0,0,13.33V50.67A13.37,13.37,0,0,0,13.33,64H50.67A13.37,13.37,0,0,0,64,50.67V13.33A13.37,13.37,0,0,0,50.67,0Z"/><path class="d" d="M50.67,2.67H13.33A10.67,10.67,0,0,0,2.67,13.33V32.64A118.12,118.12,0,0,0,32,36.22a118.12,118.12,0,0,0,29.33-3.58V13.33A10.67,10.67,0,0,0,50.67,2.67Z"/><polygon class="e" points="26.67 47.37 26.67 33.71 16.48 33.71 32 16.8 47.52 33.71 37.33 33.71 37.33 47.37 26.67 47.37"/><path class="f" d="M32,17.29,46.76,33.37H37V47H27V33.37H17.24L32,17.29m0-1L15.72,34H26.34V47.7H37.66V34H48.28L32,16.3Z"/></g></svg>