<svg xmlns="http://www.w3.org/2000/svg" viewBox="0 0 32 32"><defs><style>.cls-1{fill:#95e1d3;fill-rule:evenodd;}</style></defs><title>service-2-ic-3Ресурс 5</title><g id="Слой_2" data-name="Слой 2"><g id="service_2" data-name="service 2"><g id="web_design" data-name="web design"><g id="BULLSEYE"><path class="cls-1" d="M16,13a3,3,0,1,0,3,3A3,3,0,0,0,16,13ZM16,0A16,16,0,1,0,32,16,16,16,0,0,0,16,0Zm0,29A13,13,0,1,1,29,16,13,13,0,0,1,16,29ZM16,6.5A9.5,9.5,0,1,0,25.5,16,9.5,9.5,0,0,0,16,6.5Zm0,16A6.5,6.5,0,1,1,22.5,16,6.5,6.5,0,0,1,16,22.5Z"/></g></g></g></g></svg>