<svg id="Слой_1" data-name="Слой 1" xmlns="http://www.w3.org/2000/svg" viewBox="0 0 31 28"><defs><style>.cls-1{fill:#95e1d3;}</style></defs><title>srvise-ic-3</title><g id="Слой_2" data-name="Слой 2"><g id="service"><g id="_3" data-name=" 3"><g id="COMPUTER_OK" data-name="COMPUTER OK"><path class="cls-1" d="M29.5,0H1.5A1.5,1.5,0,0,0,0,1.5v20A1.5,1.5,0,0,0,1.5,23H11v2.5l-2,2V28H22v-.5l-2-2V23h9.5A1.5,1.5,0,0,0,31,21.5V1.5A1.5,1.5,0,0,0,29.5,0ZM29,19H2V2H29ZM13.44,13.56a1.51,1.51,0,0,0,2.12,0l4-4a1.5,1.5,0,1,0-2-2.19.46.46,0,0,0-.07.07L14.5,10.38l-.94-.94a1.5,1.5,0,0,0-2.19,2.05l.07.07Z"/></g></g></g></g></svg>