<svg id="Слой_1" data-name="Слой 1" xmlns="http://www.w3.org/2000/svg" viewBox="0 0 32 32.01"><defs><style>.cls-1{fill:#95e1d3;}</style></defs><title>servise-ic-4</title><g id="Слой_2" data-name="Слой 2"><g id="service"><g id="_4" data-name=" 4"><g id="BOOK_2" data-name="BOOK 2"><path class="cls-1" d="M5.38,21.87l5.5,2.5a1.68,1.68,0,0,0,.62.13,1.5,1.5,0,0,0,.62-2.87l-5.5-2.5A1.68,1.68,0,0,0,6,19a1.5,1.5,0,0,0-.62,2.87Zm0-11,5.5,2.5a1.68,1.68,0,0,0,.62.13,1.5,1.5,0,0,0,.62-2.87l-5.5-2.5A1.68,1.68,0,0,0,6,8a1.5,1.5,0,0,0-.62,2.87Zm0,5.5,5.5,2.5h0a1.48,1.48,0,0,0,.62.14,1.5,1.5,0,0,0,.62-2.87l-5.5-2.5A1.51,1.51,0,0,0,6,13.5a1.5,1.5,0,0,0-.62,2.87ZM20.5,24.5a1.68,1.68,0,0,0,.62-.13l5.5-2.5A1.5,1.5,0,0,0,26,19a1.68,1.68,0,0,0-.62.13l-5.5,2.5a1.5,1.5,0,0,0,.62,2.87Zm0-11a1.68,1.68,0,0,0,.62-.13l5.5-2.5A1.5,1.5,0,0,0,26,8a1.68,1.68,0,0,0-.62.13l-5.5,2.5a1.5,1.5,0,0,0,.62,2.87ZM30.5,0a1.56,1.56,0,0,0-.57.11h0L16,5.88,2.09.12h0A1.52,1.52,0,0,0,1.5,0,1.5,1.5,0,0,0,0,1.5v23a1.5,1.5,0,0,0,.94,1.39l14.47,6a1.51,1.51,0,0,0,1.18,0l14.47-6A1.5,1.5,0,0,0,32,24.5V1.5A1.5,1.5,0,0,0,30.5,0Zm-16,28.26L3,23.5V3.74L14.5,8.5ZM29,23.5,17.5,28.26V8.5L29,3.74ZM20.5,19a1.48,1.48,0,0,0,.62-.14h0l5.5-2.5A1.5,1.5,0,0,0,26,13.5a1.68,1.68,0,0,0-.62.13l-5.5,2.5A1.5,1.5,0,0,0,20.5,19Z" transform="translate(0 0)"/></g></g></g></g></svg>