<svg xmlns="http://www.w3.org/2000/svg" viewBox="0 0 28 32"><defs><style>.cls-1{fill:#95e1d3;fill-rule:evenodd;}</style></defs><title>service-2-ic-2Ресурс 4</title><g id="Слой_2" data-name="Слой 2"><g id="service_2" data-name="service 2"><g id="creativity"><g id="EQUALIZER"><path class="cls-1" d="M4.5,1.5a1.5,1.5,0,0,0-3,0V10h3Zm11,0a1.5,1.5,0,0,0-3,0V14h3Zm-14,29a1.5,1.5,0,0,0,3,0V22h-3Zm25-29a1.5,1.5,0,0,0-3,0V6h3Zm-11,14h-3A1.5,1.5,0,0,0,11,17v6a1.5,1.5,0,0,0,1.5,1.5h3A1.5,1.5,0,0,0,17,23V17A1.5,1.5,0,0,0,15.5,15.5Zm8,15a1.5,1.5,0,0,0,3,0V18h-3Zm-19-19h-3A1.5,1.5,0,0,0,0,13v6a1.5,1.5,0,0,0,1.5,1.5h3A1.5,1.5,0,0,0,6,19V13A1.5,1.5,0,0,0,4.5,11.5Zm22-4h-3A1.5,1.5,0,0,0,22,9v6a1.5,1.5,0,0,0,1.5,1.5h3A1.5,1.5,0,0,0,28,15V9A1.5,1.5,0,0,0,26.5,7.5Zm-14,23a1.5,1.5,0,0,0,3,0V26h-3Z"/></g></g></g></g></svg>