<svg xmlns="http://www.w3.org/2000/svg" viewBox="0 0 32 32"><defs><style>.cls-1{fill:#95e1d3;fill-rule:evenodd;}</style></defs><title>servise-ic-6Ресурс 4</title><g id="Слой_2" data-name="Слой 2"><g id="service"><g id="_6" data-name="6"><g id="IMAGE"><path class="cls-1" d="M20,27.5h7.5V20a1.5,1.5,0,0,0-3,0v4.5H20a1.5,1.5,0,0,0,0,3Zm0-20h4.5V12a1.5,1.5,0,0,0,3,0V4.5H20a1.5,1.5,0,0,0,0,3Zm-8,20h0a1.5,1.5,0,0,0,0-3H7.5V20a1.5,1.5,0,0,0-3,0v7.5H12Zm-6-14A1.5,1.5,0,0,0,7.5,12V7.5H12a1.5,1.5,0,0,0,0-3H4.5V12A1.5,1.5,0,0,0,6,13.5ZM30.5,0H1.5A1.5,1.5,0,0,0,0,1.5v29A1.5,1.5,0,0,0,1.5,32h29A1.5,1.5,0,0,0,32,30.5V1.5A1.5,1.5,0,0,0,30.5,0ZM29,29H3V3H29Z"/></g></g></g></g></svg>