<svg id="Слой_2" data-name="Слой 2" xmlns="http://www.w3.org/2000/svg" viewBox="0 0 31.8 31.1"><defs><style>.cls-1{fill:#95e1d3;}</style></defs><title>srvise-ic-1</title><path class="cls-1" d="M24.2,17.1a1.47,1.47,0,0,1-1.5,1.5l-6.7.1h0a1.54,1.54,0,0,1-1.5-1.5v-.3h0V8A1.54,1.54,0,0,1,16,6.5h0A1.54,1.54,0,0,1,17.5,8v7.7l5.2-.1A1.47,1.47,0,0,1,24.2,17.1Z" transform="translate(-0.1)"/><path class="cls-1" d="M29,30.4a1.35,1.35,0,0,1-1.2.5,1.93,1.93,0,0,1-1-.3l-3-2.5a15.45,15.45,0,0,0,2.4-1.9l2.6,2.1A1.56,1.56,0,0,1,29,30.4Z" transform="translate(-0.1)"/><path class="cls-1" d="M16,1.4A14.51,14.51,0,0,0,1.5,15.9,14.68,14.68,0,0,0,5.8,26.2a11.17,11.17,0,0,0,2.4,1.9A14.85,14.85,0,0,0,16,30.4a14.59,14.59,0,0,0,7.8-2.3,15.45,15.45,0,0,0,2.4-1.9,14.27,14.27,0,0,0,4.3-10.3A14.51,14.51,0,0,0,16,1.4Zm0,26A11.5,11.5,0,1,1,27.5,15.9,11.57,11.57,0,0,1,16,27.4Z" transform="translate(-0.1)"/><path class="cls-1" d="M8.2,28.2l-3,2.5a1.28,1.28,0,0,1-1,.4,1.61,1.61,0,0,1-1.1-.5,1.46,1.46,0,0,1,.2-2.1l2.5-2.2A15.45,15.45,0,0,0,8.2,28.2Z" transform="translate(-0.1)"/><path class="cls-1" d="M1.4,9.9A5.66,5.66,0,0,1,.1,6.1,6.06,6.06,0,0,1,6.2,0,5.58,5.58,0,0,1,9.8,1.2c.4.3-1.5,0-5.1,3.7S1.9,10.5,1.4,9.9Z" transform="translate(-0.1)"/><path class="cls-1" d="M22,1.3a6.13,6.13,0,0,1,9.9,4.8,5.58,5.58,0,0,1-1.2,3.6c-.3.4,0-1.5-3.7-5.1S21.4,1.8,22,1.3Z" transform="translate(-0.1)"/></svg>