<svg xmlns="http://www.w3.org/2000/svg" viewBox="0 0 32 30.5"><defs><style>.cls-1{fill:#95e1d3;fill-rule:evenodd;}</style></defs><title>servise-ic-5Ресурс 3</title><g id="Слой_2" data-name="Слой 2"><g id="service"><g id="_5" data-name="5"><g id="HOME"><path class="cls-1" d="M3,18.5V29a1.5,1.5,0,0,0,1.5,1.5h14v-12h6v12h3A1.5,1.5,0,0,0,29,29V18.5L16,5.5Zm10.5,6h-6v-6h6ZM31.59,15h0L26,9.38V5a1.5,1.5,0,0,0-3,0V6.38L17.1.48h0A1.49,1.49,0,0,0,16.16,0H16a1.51,1.51,0,0,0-1.08.46L.46,14.92a1.5,1.5,0,0,0,1,2.58,1.47,1.47,0,0,0,1-.43h0L16,3.62h0l0,0h0L29.48,17.1h0A1.49,1.49,0,0,0,32,16,1.51,1.51,0,0,0,31.59,15Z"/></g></g></g></g></svg>