<svg xmlns="http://www.w3.org/2000/svg" viewBox="0 0 63 61"><g id="Слой_2" data-name="Слой 2"><g id="quote"><path d="M50.84 45.33L44.51 39H18a6 6 0 0 1-6-6V12H3a3 3 0 0 0-3 3v34a3 3 0 0 0 3 3h4v6a3.08 3.08 0 0 0 .06.61c0 .13.08.26.12.39a1.77 1.77 0 0 0 .06.17 2 2 0 0 0 .17.32c0 .07.06.13.1.19a2.57 2.57 0 0 0 .34.4A3 3 0 0 0 10 61a3 3 0 0 0 2.12-.88L20.24 52H52a3 3 0 0 0 3-3v-2a6 6 0 0 1-4.15-1.68zM60 0H18a3 3 0 0 0-3 3v30a3 3 0 0 0 3 3h27.76l7.12 7.12A3 3 0 0 0 55 44a3 3 0 0 0 2.08-.88 2.57 2.57 0 0 0 .34-.4c0-.06.06-.13.1-.19a2 2 0 0 0 .17-.32 1.15 1.15 0 0 0 .06-.17c0-.13.09-.26.12-.39A3.08 3.08 0 0 0 58 41v-5h2a3 3 0 0 0 3-3V3a3 3 0 0 0-3-3z" fill="#95e1d3" fill-rule="evenodd" id="SPEECH_4" data-name="SPEECH 4"/></g></g></svg>