<svg xmlns="http://www.w3.org/2000/svg" viewBox="0 0 30 30"><g id="Слой_2" data-name="Слой 2"><g id="work"><g id="pic"><g id="hover"><path d="M24.5 18.5l-4.5-7-7 8.5-1.5-1.5-6 6h19zM10 13a3 3 0 1 0-3-3 3 3 0 0 0 3 3zm20-7a1.51 1.51 0 0 0-1-1.41V2.91A1.5 1.5 0 1 0 27.09 1h-1.68a1.49 1.49 0 0 0-2.82 0h-1.68a1.49 1.49 0 0 0-2.82 0h-1.68a1.49 1.49 0 0 0-2.82 0h-1.68a1.49 1.49 0 0 0-2.82 0H7.41a1.49 1.49 0 0 0-2.82 0H2.91A1.5 1.5 0 1 0 1 2.91v1.68a1.49 1.49 0 0 0 0 2.82v1.68a1.49 1.49 0 0 0 0 2.82v1.68a1.49 1.49 0 0 0 0 2.82v1.68a1.49 1.49 0 0 0 0 2.82v1.68a1.49 1.49 0 0 0 0 2.82v1.68A1.5 1.5 0 1 0 2.91 29h1.68a1.49 1.49 0 0 0 2.82 0h1.68a1.49 1.49 0 0 0 2.82 0h1.68a1.49 1.49 0 0 0 2.82 0h1.68a1.49 1.49 0 0 0 2.82 0h1.68a1.49 1.49 0 0 0 2.82 0h1.68A1.5 1.5 0 1 0 29 27.09v-1.68a1.49 1.49 0 0 0 0-2.82v-1.68a1.49 1.49 0 0 0 0-2.82v-1.68a1.49 1.49 0 0 0 0-2.82v-1.68a1.49 1.49 0 0 0 0-2.82V7.41A1.51 1.51 0 0 0 30 6zm-4 20H4V4h22z" fill="#fff" fill-rule="evenodd" id="PICTURE"/></g></g></g></g></svg>