<svg xmlns="http://www.w3.org/2000/svg" viewBox="0 0 64 64"><defs><radialGradient id="a" cx="32" cy="32" r="31.33" gradientUnits="userSpaceOnUse"><stop offset="0" stop-color="#d1edfb"/><stop offset="1" stop-color="#f38181"/></radialGradient><linearGradient id="b" x1="32" y1="1.6" x2="32" y2="50.97" gradientUnits="userSpaceOnUse"><stop offset="0" stop-color="#fff"/><stop offset="1"/></linearGradient><linearGradient id="c" x1="-330.86" y1="-298.44" x2="-330.86" y2="-326.8" gradientTransform="rotate(-90 22.38 -321.16)" gradientUnits="userSpaceOnUse"><stop offset="0" stop-color="#706f71"/><stop offset="1" stop-color="#050607"/></linearGradient></defs><g style="isolation:isolate"><rect x=".67" y=".67" width="62.67" height="62.67" rx="12.67" ry="12.67" fill="url(#a)"/><path d="M50.67 1.33a12 12 0 0 1 12 12v37.34a12 12 0 0 1-12 12H13.33a12 12 0 0 1-12-12V13.33a12 12 0 0 1 12-12h37.34m0-1.33H13.33A13.37 13.37 0 0 0 0 13.33v37.34A13.37 13.37 0 0 0 13.33 64h37.34A13.37 13.37 0 0 0 64 50.67V13.33A13.37 13.37 0 0 0 50.67 0z" fill="#f66"/><path d="M50.67 2.67H13.33A10.67 10.67 0 0 0 2.67 13.33v19.31A118.12 118.12 0 0 0 32 36.22a118.12 118.12 0 0 0 29.33-3.58V13.33A10.67 10.67 0 0 0 50.67 2.67z" style="mix-blend-mode:screen" fill="url(#b)"/><path fill="url(#c)" d="M26.67 47.37V33.71H16.48L32 16.8l15.52 16.91H37.33v13.66H26.67z"/><path d="M32 17.29l14.76 16.08H37V47H27V33.37h-9.76L32 17.29m0-1L15.72 34h10.62v13.7h11.32V34h10.62L32 16.3z" fill="#15272a"/></g></svg>