<svg xmlns="http://www.w3.org/2000/svg" viewBox="0 0 32 30.5"><g id="Слой_2" data-name="Слой 2"><g id="service"><g id="_5" data-name="5"><path d="M3 18.5V29a1.5 1.5 0 0 0 1.5 1.5h14v-12h6v12h3A1.5 1.5 0 0 0 29 29V18.5l-13-13zm10.5 6h-6v-6h6zM31.59 15L26 9.38V5a1.5 1.5 0 0 0-3 0v1.38L17.1.48a1.49 1.49 0 0 0-.94-.48H16a1.51 1.51 0 0 0-1.08.46L.46 14.92a1.5 1.5 0 0 0 1 2.58 1.47 1.47 0 0 0 1-.43L16 3.62 29.48 17.1A1.49 1.49 0 0 0 32 16a1.51 1.51 0 0 0-.41-1z" fill="#95e1d3" fill-rule="evenodd" id="HOME"/></g></g></g></svg>