<svg id="Слой_1" data-name="Слой 1" xmlns="http://www.w3.org/2000/svg" viewBox="0 0 31 28"><g id="Слой_2" data-name="Слой 2"><g id="service"><g id="_3" data-name="3"><path d="M29.5 0h-28A1.5 1.5 0 0 0 0 1.5v20A1.5 1.5 0 0 0 1.5 23H11v2.5l-2 2v.5h13v-.5l-2-2V23h9.5a1.5 1.5 0 0 0 1.5-1.5v-20A1.5 1.5 0 0 0 29.5 0zM29 19H2V2h27zm-15.56-5.44a1.51 1.51 0 0 0 2.12 0l4-4a1.5 1.5 0 1 0-2-2.19.46.46 0 0 0-.07.07l-2.99 2.94-.94-.94a1.5 1.5 0 0 0-2.19 2.05l.07.07z" fill="#95e1d3" id="COMPUTER_OK" data-name="COMPUTER OK"/></g></g></g></svg>