<svg xmlns="http://www.w3.org/2000/svg" viewBox="0 0 28 32"><g id="Слой_2" data-name="Слой 2"><g id="service_2" data-name="service 2"><g id="creativity"><path d="M4.5 1.5a1.5 1.5 0 0 0-3 0V10h3zm11 0a1.5 1.5 0 0 0-3 0V14h3zm-14 29a1.5 1.5 0 0 0 3 0V22h-3zm25-29a1.5 1.5 0 0 0-3 0V6h3zm-11 14h-3A1.5 1.5 0 0 0 11 17v6a1.5 1.5 0 0 0 1.5 1.5h3A1.5 1.5 0 0 0 17 23v-6a1.5 1.5 0 0 0-1.5-1.5zm8 15a1.5 1.5 0 0 0 3 0V18h-3zm-19-19h-3A1.5 1.5 0 0 0 0 13v6a1.5 1.5 0 0 0 1.5 1.5h3A1.5 1.5 0 0 0 6 19v-6a1.5 1.5 0 0 0-1.5-1.5zm22-4h-3A1.5 1.5 0 0 0 22 9v6a1.5 1.5 0 0 0 1.5 1.5h3A1.5 1.5 0 0 0 28 15V9a1.5 1.5 0 0 0-1.5-1.5zm-14 23a1.5 1.5 0 0 0 3 0V26h-3z" fill="#95e1d3" fill-rule="evenodd" id="EQUALIZER"/></g></g></g></svg>