<svg xmlns="http://www.w3.org/2000/svg" viewBox="0 0 32 32"><g id="Слой_2" data-name="Слой 2"><g id="service"><g id="_6" data-name="6"><path d="M20 27.5h7.5V20a1.5 1.5 0 0 0-3 0v4.5H20a1.5 1.5 0 0 0 0 3zm0-20h4.5V12a1.5 1.5 0 0 0 3 0V4.5H20a1.5 1.5 0 0 0 0 3zm-8 20a1.5 1.5 0 0 0 0-3H7.5V20a1.5 1.5 0 0 0-3 0v7.5H12zm-6-14A1.5 1.5 0 0 0 7.5 12V7.5H12a1.5 1.5 0 0 0 0-3H4.5V12A1.5 1.5 0 0 0 6 13.5zM30.5 0h-29A1.5 1.5 0 0 0 0 1.5v29A1.5 1.5 0 0 0 1.5 32h29a1.5 1.5 0 0 0 1.5-1.5v-29A1.5 1.5 0 0 0 30.5 0zM29 29H3V3h26z" fill="#95e1d3" fill-rule="evenodd" id="IMAGE"/></g></g></g></svg>