<svg id="Слой_1" data-name="Слой 1" xmlns="http://www.w3.org/2000/svg" viewBox="0 0 32 32.01"><g id="Слой_2" data-name="Слой 2"><g id="service"><g id="_4" data-name="4"><path d="M5.38 21.87l5.5 2.5a1.68 1.68 0 0 0 .62.13 1.5 1.5 0 0 0 .62-2.87l-5.5-2.5A1.68 1.68 0 0 0 6 19a1.5 1.5 0 0 0-.62 2.87zm0-11l5.5 2.5a1.68 1.68 0 0 0 .62.13 1.5 1.5 0 0 0 .62-2.87l-5.5-2.5A1.68 1.68 0 0 0 6 8a1.5 1.5 0 0 0-.62 2.87zm0 5.5l5.5 2.5a1.48 1.48 0 0 0 .62.14 1.5 1.5 0 0 0 .62-2.87l-5.5-2.5A1.51 1.51 0 0 0 6 13.5a1.5 1.5 0 0 0-.62 2.87zM20.5 24.5a1.68 1.68 0 0 0 .62-.13l5.5-2.5A1.5 1.5 0 0 0 26 19a1.68 1.68 0 0 0-.62.13l-5.5 2.5a1.5 1.5 0 0 0 .62 2.87zm0-11a1.68 1.68 0 0 0 .62-.13l5.5-2.5A1.5 1.5 0 0 0 26 8a1.68 1.68 0 0 0-.62.13l-5.5 2.5a1.5 1.5 0 0 0 .62 2.87zM30.5 0a1.56 1.56 0 0 0-.57.11L16 5.88 2.09.12A1.52 1.52 0 0 0 1.5 0 1.5 1.5 0 0 0 0 1.5v23a1.5 1.5 0 0 0 .94 1.39l14.47 6a1.51 1.51 0 0 0 1.18 0l14.47-6A1.5 1.5 0 0 0 32 24.5v-23A1.5 1.5 0 0 0 30.5 0zm-16 28.26L3 23.5V3.74L14.5 8.5zM29 23.5l-11.5 4.76V8.5L29 3.74zM20.5 19a1.48 1.48 0 0 0 .62-.14l5.5-2.5A1.5 1.5 0 0 0 26 13.5a1.68 1.68 0 0 0-.62.13l-5.5 2.5A1.5 1.5 0 0 0 20.5 19z" fill="#95e1d3" id="BOOK_2" data-name="BOOK 2"/></g></g></g></svg>